HIERARCHY
ROOT hip
{
  OFFSET 0 0 0
  CHANNELS 6 Xposition Yposition Zposition Zrotation Yrotation Xrotation
  JOINT abdomen
  {
    OFFSET 0 20.6881 -0.73152
    CHANNELS 3 Zrotation Xrotation Yrotation
    JOINT chest
    {
      OFFSET 0 11.7043 -0.48768
      CHANNELS 3 Zrotation Xrotation Yrotation
      JOINT neck
      {
        OFFSET 0 22.1894 -2.19456
        CHANNELS 3 Zrotation Xrotation Yrotation
        JOINT head
        {
          OFFSET -0.24384 7.07133 1.2192
          CHANNELS 3 Zrotation Xrotation Yrotation
          JOINT leftEye
          {
            OFFSET 4.14528 8.04674 8.04672
            CHANNELS 3 Zrotation Xrotation Yrotation
            End Site
            {
              OFFSET 1 0 0
            }
          }
          JOINT rightEye
          {
            OFFSET -3.6576 8.04674 8.04672
            CHANNELS 3 Zrotation Xrotation Yrotation
            End Site
            {
              OFFSET 1 0 0
            }
          }
        }
      }
      JOINT rCollar
      {
        OFFSET -2.68224 19.2634 -4.8768
        CHANNELS 3 Zrotation Xrotation Yrotation
        JOINT rShldr
        {
          OFFSET -8.77824 -1.95073 1.46304
          CHANNELS 3 Zrotation Xrotation Yrotation
          JOINT rForeArm
          {
            OFFSET -28.1742 -1.7115 0.48768
            CHANNELS 3 Zrotation Xrotation Yrotation
            JOINT rHand
            {
              OFFSET -22.5879 0.773209 7.07136
              CHANNELS 3 Zrotation Xrotation Yrotation
              JOINT rThumb1
              {
                OFFSET -1.2192 -0.487915 3.41376
                CHANNELS 3 Zrotation Xrotation Yrotation
                JOINT rThumb2
                {
                  OFFSET -3.37035 -0.52449 3.41376
                  CHANNELS 3 Zrotation Xrotation Yrotation
                  End Site
                  {
                    OFFSET -1.78271 -1.18214 1.43049
                  }
                }
              }
              JOINT rIndex1
              {
                OFFSET -7.75947 0.938293 5.60832
                CHANNELS 3 Zrotation Xrotation Yrotation
                JOINT rIndex2
                {
                  OFFSET -2.54057 -0.884171 1.56538
                  CHANNELS 3 Zrotation Xrotation Yrotation
                  End Site
                  {
                    OFFSET -1.62519 -0.234802 1.16502
                  }
                }
              }
              JOINT rMid1
              {
                OFFSET -8.24714 1.18213 3.41376
                CHANNELS 3 Zrotation Xrotation Yrotation
                JOINT rMid2
                {
                  OFFSET -3.10165 -0.590103 1.0647
                  CHANNELS 3 Zrotation Xrotation Yrotation
                  End Site
                  {
                    OFFSET -2.48547 -0.328903 0.83742
                  }
                }
              }
              JOINT rRing1
              {
                OFFSET -8.82822 0.546677 1.51678
                CHANNELS 3 Zrotation Xrotation Yrotation
                JOINT rRing2
                {
                  OFFSET -2.60934 -0.819778 -0.0198488
                  CHANNELS 3 Zrotation Xrotation Yrotation
                  End Site
                  {
                    OFFSET -2.33842 -0.294052 0.168128
                  }
                }
              }
              JOINT rPinky1
              {
                OFFSET -8.27202 -0.0477905 -0.4584
                CHANNELS 3 Zrotation Xrotation Yrotation
                JOINT rPinky2
                {
                  OFFSET -1.82734 -0.647385 -0.700984
                  CHANNELS 3 Zrotation Xrotation Yrotation
                  End Site
                  {
                    OFFSET -1.69225 -0.51767 -0.607171
                  }
                }
              }
            }
          }
        }
      }
      JOINT lCollar
      {
        OFFSET 2.68224 19.2634 -4.8768
        CHANNELS 3 Zrotation Xrotation Yrotation
        JOINT lShldr
        {
          OFFSET 8.77824 -1.95073 1.46304
          CHANNELS 3 Zrotation Xrotation Yrotation
          JOINT lForeArm
          {
            OFFSET 28.1742 -1.7115 0.48768
            CHANNELS 3 Zrotation Xrotation Yrotation
            JOINT lHand
            {
              OFFSET 22.5879 0.773209 7.07136
              CHANNELS 3 Zrotation Xrotation Yrotation
              JOINT lThumb1
              {
                OFFSET 1.2192 -0.487915 3.41376
                CHANNELS 3 Zrotation Xrotation Yrotation
                JOINT lThumb2
                {
                  OFFSET 3.37035 -0.52449 3.41376
                  CHANNELS 3 Zrotation Xrotation Yrotation
                  End Site
                  {
                    OFFSET 1.78271 -1.18214 1.43049
                  }
                }
              }
              JOINT lIndex1
              {
                OFFSET 7.75947 0.938293 5.60832
                CHANNELS 3 Zrotation Xrotation Yrotation
                JOINT lIndex2
                {
                  OFFSET 2.54057 -0.884171 1.56538
                  CHANNELS 3 Zrotation Xrotation Yrotation
                  End Site
                  {
                    OFFSET 1.62519 -0.234802 1.16502
                  }
                }
              }
              JOINT lMid1
              {
                OFFSET 8.24714 1.18213 3.41376
                CHANNELS 3 Zrotation Xrotation Yrotation
                JOINT lMid2
                {
                  OFFSET 3.10165 -0.590103 1.0647
                  CHANNELS 3 Zrotation Xrotation Yrotation
                  End Site
                  {
                    OFFSET 2.48547 -0.328903 0.83742
                  }
                }
              }
              JOINT lRing1
              {
                OFFSET 8.82822 0.546677 1.51678
                CHANNELS 3 Zrotation Xrotation Yrotation
                JOINT lRing2
                {
                  OFFSET 2.60934 -0.819778 -0.0198488
                  CHANNELS 3 Zrotation Xrotation Yrotation
                  End Site
                  {
                    OFFSET 2.33842 -0.294052 0.168128
                  }
                }
              }
              JOINT lPinky1
              {
                OFFSET 8.27202 -0.0477905 -0.4584
                CHANNELS 3 Zrotation Xrotation Yrotation
                JOINT lPinky2
                {
                  OFFSET 1.82734 -0.647385 -0.700984
                  CHANNELS 3 Zrotation Xrotation Yrotation
                  End Site
                  {
                    OFFSET 1.69225 -0.51767 -0.607171
                  }
                }
              }
            }
          }
        }
      }
    }
  }
  JOINT rButtock
  {
    OFFSET -8.77824 4.35084 1.2192
    CHANNELS 3 Zrotation Xrotation Yrotation
    JOINT rThigh
    {
      OFFSET 0 -1.70687 -2.19456
      CHANNELS 3 Zrotation Xrotation Yrotation
      JOINT rShin
      {
        OFFSET 0 -36.8199 0.73152
        CHANNELS 3 Zrotation Xrotation Yrotation
        JOINT rFoot
        {
          OFFSET 0.73152 -45.1104 -5.12064
          CHANNELS 3 Zrotation Xrotation Yrotation
          End Site
          {
            OFFSET -1.1221 -3.69964 12.103
          }
        }
      }
    }
  }
  JOINT lButtock
  {
    OFFSET 8.77824 4.35084 1.2192
    CHANNELS 3 Zrotation Xrotation Yrotation
    JOINT lThigh
    {
      OFFSET 0 -1.70687 -2.19456
      CHANNELS 3 Zrotation Xrotation Yrotation
      JOINT lShin
      {
        OFFSET 0 -36.8199 0.73152
        CHANNELS 3 Zrotation Xrotation Yrotation
        JOINT lFoot
        {
          OFFSET -0.73152 -45.1104 -5.12064
          CHANNELS 3 Zrotation Xrotation Yrotation
          End Site
          {
            OFFSET 1.1221 -3.69964 12.103
          }
        }
      }
    }
  }
}
MOTION
Frames:	5
Frame Time:	0.00833333
17.533539 0.523977 -20.096464 -16.188736 -27.596947 12.170774 13.586002 10.159692 2.342468 2.578572 -7.209467 0.747875 -0.268272 13.541816 6.582178 4.303119 -25.597788 14.20983 0.055638 -0.142408 -0.041025 -0.014821 0.007354 0.061044 0.061986 -0.056397 -0.001477 104.445564 44.852192 -55.372658 -27.085417 -43.93517 91.047806 -4.022917 -48.393246 -8.989123 -0.221732 -0.020585 -0.135793 -0.188063 0.047839 -0.0868 -0.098589 -0.100694 0.11152 7.722782 5.472958 0.377523 -0.029133 0.01249 0.052661 2.777045 1.020213 0.022835 0.059862 -0.040413 0.14147 10.231277 0.716894 0.03755 -0.081956 0.011253 0.030164 2.058963 -0.769499 -0.195578 -0.033973 0.066551 0.002228 -49.324867 17.667608 -34.279785 14.032153 -6.720374 -25.693048 2.744112 34.55065 -5.649014 0.052338 -0.089617 -0.032625 -0.026763 0.044032 -0.019669 0.028443 0.176039 -0.040274 -7.87069 5.363526 -0.27672 -0.096509 -0.00488 -0.030941 -2.932931 0.916429 -0.172601 0.01598 -0.069668 0.163562 -10.370122 0.678966 0.192015 -0.106326 0.00706 -0.033896 -2.256968 -0.767985 0.238863 -0.016913 -0.052227 -0.017812 -10.642812 10.152074 -4.44853 -0.642171 34.774693 2.69514 -8.93966 -15.979304 -32.948486 -0.179565 -0.121709 -0.104112 80.87027 -55.114532 68.641975 2.532252 75.03518 -2.917762 0.099746 1.696116 -3.434909
17.665562 0.522356 -20.451286 -16.051058 -27.634453 12.122231 13.422132 10.307362 2.317596 2.613829 -7.240854 0.742454 -0.274423 13.614277 6.572672 4.319071 -25.821636 14.190137 0.057605 -0.146807 -0.05075 -0.01999 0.012348 0.061304 0.061125 -0.056002 -0.004244 104.330605 44.82089 -55.274055 -27.133394 -43.834732 90.88038 -4.005112 -48.31219 -8.961371 -0.222542 -0.023334 -0.130216 -0.192714 0.052983 -0.090419 -0.086155 -0.096496 0.118096 7.717091 5.475194 0.375589 -0.018957 0.013695 0.055262 2.78206 1.023049 0.022422 0.06011 -0.041666 0.141041 10.223032 0.715696 0.039908 -0.075718 0.013707 0.030643 2.063051 -0.769861 -0.191199 -0.03188 0.069637 0.007432 -49.262177 17.697323 -34.329433 14.016492 -6.67181 -25.605679 2.731758 34.604115 -5.626335 0.058671 -0.096344 -0.028434 -0.027066 0.050406 -0.013859 0.029929 0.17582 -0.038529 -7.87496 5.364226 -0.273776 -0.10653 -0.00747 -0.034497 -2.937737 0.913428 -0.170456 0.022878 -0.073961 0.163381 -10.366436 0.674408 0.183682 -0.095402 0.00631 -0.034563 -2.258133 -0.769714 0.239811 -0.010433 -0.053368 -0.021408 -10.784145 9.889693 -4.40819 -0.655447 35.081448 2.683819 -8.923305 -16.008398 -32.840218 -0.188265 -0.119965 -0.114164 80.47103 -55.288692 68.25063 2.505844 74.93758 -2.851948 0.111961 1.771398 -3.185211
17.809921 0.52052 -20.812807 -15.885866 -27.694313 12.064487 13.223556 10.470798 2.298556 2.653288 -7.274292 0.736098 -0.283802 13.694035 6.557323 4.337834 -26.067505 14.156305 0.058563 -0.151925 -0.060067 -0.025591 0.016589 0.061412 0.058256 -0.055376 -0.007375 104.183784 44.787704 -55.140945 -27.181868 -43.717083 90.68892 -3.982634 -48.216866 -8.928427 -0.222588 -0.026436 -0.123834 -0.197572 0.057759 -0.095252 -0.074093 -0.091658 0.124926 7.711384 5.478278 0.375209 -0.007555 0.015389 0.058268 2.786686 1.026206 0.020068 0.060734 -0.042398 0.139556 10.215132 0.714721 0.041793 -0.068386 0.015944 0.03108 2.065348 -0.770262 -0.186777 -0.029562 0.073696 0.013695 -49.191223 17.730734 -34.375183 14.006186 -6.621234 -25.526613 2.710206 34.644493 -5.595162 0.065419 -0.102619 -0.024311 -0.027674 0.057854 -0.007837 0.032372 0.176873 -0.036069 -7.879824 5.365058 -0.270886 -0.11899 -0.011549 -0.037648 -2.943032 0.909382 -0.167382 0.03107 -0.077628 0.16308 -10.362596 0.67079 0.176873 -0.083676 0.005017 -0.035433 -2.259403 -0.771737 0.241209 -0.003846 -0.055476 -0.026093 -10.951109 9.584972 -4.354652 -0.663915 35.451775 2.670528 -8.898881 -16.033367 -32.698135 -0.197887 -0.117699 -0.12504 80.01641 -55.475994 67.805214 2.479226 74.817474 -2.77778 0.12316 1.86829 -2.90073
17.967424 0.518618 -21.178415 -15.687392 -27.780592 11.994293 12.982517 10.652199 2.287724 2.697352 -7.309748 0.728351 -0.297365 13.78219 6.53558 4.359341 -26.339567 14.105836 0.058132 -0.15764 -0.06872 -0.031729 0.01971 0.061469 0.052759 -0.054548 -0.010934 103.99899 44.75185 -54.966026 -27.22981 -43.578636 90.46998 -3.954251 -48.103294 -8.88961 -0.221843 -0.029864 -0.116437 -0.202738 0.062181 -0.101626 -0.062701 -0.086024 0.131698 7.705577 5.482242 0.376764 0.005085 0.017575 0.061769 2.790583 1.02971 0.015376 0.06204 -0.042642 0.136469 10.207554 0.713815 0.043321 -0.059502 0.017663 0.031106 2.065477 -0.770661 -0.182392 -0.026657 0.078978 0.021152 -49.109344 17.768827 -34.4165 14.002428 -6.568482 -25.45874 2.67606 34.668194 -5.553916 0.072578 -0.108472 -0.020292 -0.028861 0.066695 -0.001462 0.036093 0.179311 -0.032849 -7.885456 5.365856 -0.268105 -0.13471 -0.017466 -0.04015 -2.948907 0.903827 -0.163158 0.040798 -0.080541 0.16254 -10.358477 0.668434 0.17208 -0.07139 0.003143 -0.036502 -2.260817 -0.774083 0.243123 0.002731 -0.058765 -0.032023 -11.147967 9.226885 -4.284532 -0.667232 35.905365 2.655268 -8.864109 -16.050856 -32.513027 -0.208586 -0.114376 -0.136592 79.49702 -55.680412 67.29477 2.4518 74.669106 -2.692616 0.133081 1.992378 -2.576089
18.139006 0.516813 -21.544825 -15.447629 -27.898842 11.90703 12.688787 10.854449 2.288174 2.74649 -7.347082 0.718506 -0.316173 13.880304 6.50698 4.383372 -26.643227 14.035998 0.055823 -0.163804 -0.07644 -0.038522 0.021262 0.061571 0.043864 -0.053547 -0.014969 103.76693 44.712437 -54.740097 -27.275934 -43.414406 90.21866 -3.918582 -47.966267 -8.844043 -0.220203 -0.033581 -0.107738 -0.208335 0.066236 -0.110048 -0.052365 -0.079349 0.138025 7.699482 5.4871 0.380794 0.019035 0.020181 0.065942 2.793233 1.03361 0.007783 0.064399 -0.042476 0.131025 10.200275 0.712774 0.044661 -0.048531 0.018434 0.030176 2.062951 -0.771021 -0.178098 -0.022686 0.085848 0.030026 -49.012913 17.81327 -34.452145 14.006711 -6.513399 -25.405891 2.62438 34.67007 -5.499895 0.080188 -0.113891 -0.016426 -0.030974 0.07742 0.005463 0.041455 0.183337 -0.028829 -7.892104 5.366404 -0.265536 -0.154692 -0.025666 -0.041674 -2.955474 0.896104 -0.15745 0.052441 -0.082551 0.161586 -10.353786 0.667854 0.170018 -0.058843 0.000636 -0.037772 -2.262388 -0.776725 0.245659 0.00924 -0.063591 -0.039475 -11.380259 8.800644 -4.193247 -0.664779 36.46929 2.638185 -8.816029 -16.0568 -32.272346 -0.220593 -0.109255 -0.148672 78.90081 -55.90669 66.70544 2.422158 74.4844 -2.59314 0.141285 2.15123 -2.204864
